<svg width="13" height="7" viewBox="0 0 13 7" fill="none" xmlns="http://www.w3.org/2000/svg">
<path fill-rule="evenodd" clip-rule="evenodd" d="M8.51198 0.355486C8.55552 0.311833 8.60725 0.277199 8.6642 0.253568C8.72115 0.229937 8.7822 0.217773 8.84386 0.217773C8.90551 0.217773 8.96656 0.229937 9.02351 0.253568C9.08046 0.277199 9.13219 0.311833 9.17573 0.355486L11.9882 3.16799C12.0319 3.21153 12.0665 3.26326 12.0901 3.3202C12.1138 3.37715 12.1259 3.4382 12.1259 3.49986C12.1259 3.56152 12.1138 3.62257 12.0901 3.67952C12.0665 3.73646 12.0319 3.78819 11.9882 3.83174L9.17573 6.64423C9.08771 6.73225 8.96833 6.7817 8.84386 6.7817C8.71938 6.7817 8.6 6.73225 8.51198 6.64423C8.42396 6.55622 8.37451 6.43684 8.37451 6.31236C8.37451 6.18788 8.42396 6.0685 8.51198 5.98048L10.9935 3.49986L8.51198 1.01924C8.46833 0.975693 8.43369 0.923966 8.41006 0.867018C8.38643 0.810069 8.37427 0.749018 8.37427 0.687361C8.37427 0.625704 8.38643 0.564653 8.41006 0.507705C8.43369 0.450756 8.46833 0.399029 8.51198 0.355486Z" fill="#2864AE"/>
<path fill-rule="evenodd" clip-rule="evenodd" d="M0.875 3.5C0.875 3.37568 0.924386 3.25645 1.01229 3.16854C1.1002 3.08064 1.21943 3.03125 1.34375 3.03125H11.1875C11.3118 3.03125 11.431 3.08064 11.519 3.16854C11.6069 3.25645 11.6562 3.37568 11.6562 3.5C11.6562 3.62432 11.6069 3.74355 11.519 3.83146C11.431 3.91936 11.3118 3.96875 11.1875 3.96875H1.34375C1.21943 3.96875 1.1002 3.91936 1.01229 3.83146C0.924386 3.74355 0.875 3.62432 0.875 3.5Z" fill="#2864AE"/>
</svg>
